<svg width="84" height="84" viewBox="0 0 84 84" fill="none" xmlns="http://www.w3.org/2000/svg">
<g id="Weather / Morning / Foggy / 2" clip-path="url(#clip0_2_2)">
<rect width="84" height="84" fill="url(#paint0_linear_2_2)"/>
<path id="Path 51" fill-rule="evenodd" clip-rule="evenodd" d="M90.7425 48.5057C90.7425 48.5057 78.8305 40.9646 69.8332 40.9646C57.9318 40.9646 49.9746 51.2493 40.3475 51.2493C29.1276 51.2493 27.7157 48.2774 21.424 48.2774C12.5317 48.2774 0.795189 53.8502 -5.39436 51.8389C-10.3892 50.2158 -16.4024 46.9375 -16.4024 46.9375V74.4648L90.7425 76.1193V48.5057Z" fill="url(#paint1_linear_2_2)"/>
<path id="Path 51_2" fill-rule="evenodd" clip-rule="evenodd" d="M-14.6365 66.8971C-14.6365 66.8971 -14.0933 49.5787 -1.77952 46.8708C8.98668 45.2604 17.2872 57.7596 26.9142 57.7596C38.1341 57.7596 43.4218 50.5057 54.3152 50.5057C62.2603 50.5057 70.0186 56.8123 80.838 54.6262C104.87 49.7706 92.5084 48.9375 92.5084 48.9375V76.4648L-14.6365 78.1193V66.8971Z" fill="url(#paint2_linear_2_2)"/>
<path id="Path 53" fill-rule="evenodd" clip-rule="evenodd" d="M0 68.2731C0 68.2731 5.16911 61.326 9.22579 60.6266C13.2825 59.9272 15.5277 66.6992 15.5277 66.6992C15.5277 66.6992 17.427 66.403 18.4587 66.6992C19.4903 66.9955 20.3071 68.2731 20.3071 68.2731C20.3071 68.2731 21.6211 64.1923 27.077 64.1923C32.533 64.1923 35.3049 69.7054 35.3049 69.7054C35.3049 69.7054 37.1209 68.2731 39.0122 68.2731C40.9035 68.2731 43.0443 69.7054 43.0443 69.7054C43.0443 69.7054 44.3803 64.1923 50.0173 64.1923C55.6543 64.1923 58.0589 68.8709 58.0589 68.8709C58.0589 68.8709 60.3365 67.4338 62.5495 67.4338C64.7626 67.4338 67.4035 68.8709 67.4035 68.8709C67.4035 68.8709 68.1445 64.3319 71.441 61.6565C74.7375 58.9812 81.9149 60.6266 81.9149 60.6266L85.8409 62.6932V84.2698H0V68.2731Z" fill="url(#paint3_linear_2_2)"/>
<circle id="Oval 1" cx="52" cy="20" r="7" fill="#FEFFCA"/>
</g>
<defs>
<linearGradient id="paint0_linear_2_2" x1="0" y1="0" x2="0" y2="84" gradientUnits="userSpaceOnUse">
<stop stop-color="#A2E9FF"/>
<stop offset="0.552083" stop-color="#DDFDFF"/>
</linearGradient>
<linearGradient id="paint1_linear_2_2" x1="90.7425" y1="40.9646" x2="90.7425" y2="76.1193" gradientUnits="userSpaceOnUse">
<stop stop-color="#AAF3FA"/>
<stop offset="1" stop-color="#D5FAFD"/>
</linearGradient>
<linearGradient id="paint2_linear_2_2" x1="-14.6365" y1="46.7275" x2="-14.6365" y2="78.1193" gradientUnits="userSpaceOnUse">
<stop stop-color="#7EDEE7"/>
<stop offset="1" stop-color="#B5F1F5"/>
</linearGradient>
<linearGradient id="paint3_linear_2_2" x1="0" y1="60" x2="0" y2="84.2698" gradientUnits="userSpaceOnUse">
<stop stop-color="#4297A8"/>
<stop offset="1" stop-color="#77C8D3"/>
</linearGradient>
<clipPath id="clip0_2_2">
<rect width="84" height="84" fill="white"/>
</clipPath>
</defs>
</svg>
