<svg xmlns="http://www.w3.org/2000/svg" version="1.1" xmlns:xlink="http://www.w3.org/1999/xlink" width="512"
    height="512" x="0" y="0" viewBox="0 0 512 512" style="enable-background:new 0 0 512 512" xml:space="preserve"
    class="">
    <g>
        <linearGradient id="a" x1="57.247" x2="174.751" y1="178.752" y2="61.248" gradientUnits="userSpaceOnUse">
            <stop offset=".015" stop-color="#8c84bc" />
            <stop offset="1" stop-color="#dbdfec" />
        </linearGradient>
        <linearGradient id="b" x1="104.014" x2="403.986" y1="468.986" y2="169.014" gradientUnits="userSpaceOnUse">
            <stop offset=".015" stop-color="#b7bfd8" />
            <stop offset="1" stop-color="#e4f2ee" />
        </linearGradient>
        <linearGradient xlink:href="#a" id="c" x1="353.247" x2="470.751" y1="250.752" y2="133.248" />
        <linearGradient xlink:href="#a" id="d" x1="177.247" x2="294.751" y1="482.752" y2="365.248" />
        <g data-name="05-couldy">
            <path fill="url(#a)"
                d="M162.618 68.065a52.007 52.007 0 0 0-101.477 1.076A52 52 0 0 0 72 172h88a52 52 0 0 0 2.618-103.935z"
                opacity="1" data-original="url(#a)" />
            <path fill="url(#b)"
                d="M390 203c-1.348 0-2.7.023-4.058.07C383.856 132.1 325.47 75 254 75s-129.856 57.1-131.942 128.07c-1.355-.047-2.71-.07-4.058-.07a116 116 0 0 0 0 232h272a116 116 0 0 0 0-232z"
                opacity="1" data-original="url(#b)" class="" />
            <path fill="url(#c)"
                d="M458.618 140.065a52.007 52.007 0 0 0-101.477 1.076A52 52 0 0 0 368 244h88a52 52 0 0 0 2.618-103.935z"
                opacity="1" data-original="url(#c)" class="" />
            <path fill="url(#d)"
                d="M282.618 372.065a52.007 52.007 0 0 0-101.477 1.076A52 52 0 0 0 192 476h88a52 52 0 0 0 2.618-103.935z"
                opacity="1" data-original="url(#d)" />
        </g>
    </g>
</svg>