<svg xmlns="http://www.w3.org/2000/svg" version="1.1" xmlns:xlink="http://www.w3.org/1999/xlink" width="512"
    height="512" x="0" y="0" viewBox="0 0 512 512" style="enable-background:new 0 0 512 512" xml:space="preserve"
    class="">
    <g>
        <linearGradient id="a" x1="259.322" x2="400.678" y1="246.678" y2="105.322" gradientUnits="userSpaceOnUse">
            <stop offset=".015" stop-color="#f9cd55" />
            <stop offset="1" stop-color="#fdbc8c" />
        </linearGradient>
        <linearGradient id="b" x1="106.014" x2="405.986" y1="541.986" y2="242.014" gradientUnits="userSpaceOnUse">
            <stop offset=".015" stop-color="#b7bfd8" />
            <stop offset="1" stop-color="#e4f2ee" />
        </linearGradient>
        <g data-name="01-sunny cloud">
            <g data-name="gradient blend">
                <circle cx="330" cy="176" r="100" fill="url(#a)" opacity="1" data-original="url(#a)" />
                <g fill="#fce6aa">
                    <path
                        d="M330 52a12 12 0 0 1-12-12V24a12 12 0 0 1 24 0v16a12 12 0 0 1-12 12zM258.011 71.294a11.993 11.993 0 0 1-10.4-6l-8-13.856a12 12 0 0 1 20.784-12l8 13.856a12 12 0 0 1-10.381 18zM205.281 124a11.949 11.949 0 0 1-5.989-1.61l-13.856-8a12 12 0 1 1 12-20.784l13.856 8A12 12 0 0 1 205.281 124zM468.553 276a11.947 11.947 0 0 1-5.989-1.61l-13.856-8a12 12 0 1 1 12-20.784l13.856 8A12 12 0 0 1 468.553 276zM490 196h-16a12 12 0 0 1 0-24h16a12 12 0 0 1 0 24zM454.719 124a12 12 0 0 1-6.011-22.394l13.856-8a12 12 0 1 1 12 20.784l-13.856 8a11.949 11.949 0 0 1-5.989 1.61zM401.989 71.294a12 12 0 0 1-10.381-18l8-13.856a12 12 0 1 1 20.784 12l-8 13.856a11.993 11.993 0 0 1-10.403 6z"
                        fill="#fce6aa" opacity="1" data-original="#fce6aa" class="" />
                </g>
                <path fill="url(#b)"
                    d="M392 276c-1.348 0-2.7.023-4.058.07C385.856 205.1 327.47 148 256 148s-129.856 57.1-131.942 128.07c-1.355-.047-2.71-.07-4.058-.07a116 116 0 0 0 0 232h272a116 116 0 0 0 0-232z"
                    opacity="1" data-original="url(#b)" />
            </g>
        </g>
    </g>
</svg>