<svg xmlns="http://www.w3.org/2000/svg" version="1.1" xmlns:xlink="http://www.w3.org/1999/xlink" width="512"
    height="512" x="0" y="0" viewBox="0 0 512 512" style="enable-background:new 0 0 512 512" xml:space="preserve"
    class="">
    <g>
        <linearGradient id="a" x1="290.094" x2="414.736" y1="230.259" y2="105.617" gradientUnits="userSpaceOnUse">
            <stop offset=".015" stop-color="#f9cd55" />
            <stop offset="1" stop-color="#fed3b2" />
        </linearGradient>
        <linearGradient id="b" x1="106.014" x2="405.986" y1="541.986" y2="242.014" gradientUnits="userSpaceOnUse">
            <stop offset=".015" stop-color="#b7bfd8" />
            <stop offset="1" stop-color="#e4f2ee" />
        </linearGradient>
        <g data-name="36-night">
            <path fill="url(#a)"
                d="M455.2 163.367a12 12 0 0 0-11.935-1.7 56.989 56.989 0 0 1-69.38-83.555 12 12 0 0 0-9.685-18.471 98.437 98.437 0 0 0-3.445-.076 99.993 99.993 0 1 0 98.877 115.013 12 12 0 0 0-4.432-11.211z"
                opacity="1" data-original="url(#a)" />
            <path fill="url(#b)"
                d="M392 276c-1.348 0-2.7.023-4.058.07C385.856 205.1 327.47 148 256 148s-129.856 57.1-131.942 128.07c-1.355-.047-2.71-.07-4.058-.07a116 116 0 0 0 0 232h272a116 116 0 0 0 0-232z"
                opacity="1" data-original="url(#b)" />
        </g>
    </g>
</svg>