<svg xmlns="http://www.w3.org/2000/svg" version="1.1" xmlns:xlink="http://www.w3.org/1999/xlink" width="512"
    height="512" x="0" y="0" viewBox="0 0 512 512" style="enable-background:new 0 0 512 512" xml:space="preserve"
    class="">
    <g>
        <linearGradient id="a" x1="151.975" x2="362.025" y1="327.945" y2="117.895" gradientUnits="userSpaceOnUse">
            <stop offset=".015" stop-color="#f9cd55" />
            <stop offset="1" stop-color="#fdbc8c" />
        </linearGradient>
        <g data-name="17-sunset">
            <g fill="#fce6aa">
                <path
                    d="M257 60a12 12 0 0 1-12-12V23a12 12 0 0 1 24 0v25a12 12 0 0 1-12 12zM153.011 87.869a12 12 0 0 1-10.4-6l-12.5-21.651a12 12 0 0 1 20.786-12l12.5 21.651a12 12 0 0 1-10.382 18zM76.856 164a11.956 11.956 0 0 1-5.989-1.609l-21.651-12.5a12 12 0 0 1 12-20.786l21.651 12.5A12 12 0 0 1 76.856 164zM437.144 164a12 12 0 0 1-6.011-22.4l21.651-12.5a12 12 0 1 1 12 20.786l-21.651 12.5a11.956 11.956 0 0 1-5.989 1.614zM360.989 87.869a12 12 0 0 1-10.382-18l12.5-21.651a12 12 0 0 1 20.786 12l-12.5 21.651a12 12 0 0 1-10.404 6z"
                    fill="#fce6aa" opacity="1" data-original="#fce6aa" />
            </g>
            <path fill="url(#a)"
                d="M257 84c-94.841 0-172 77.159-172 172a12 12 0 0 0 12 12h320a12 12 0 0 0 12-12c0-94.841-77.159-172-172-172z"
                opacity="1" data-original="url(#a)" />
            <path fill="#b7bfd8" d="M495.5 268.5h-479a12 12 0 0 1 0-24h479a12 12 0 0 1 0 24z" opacity="1"
                data-original="#b7bfd8" />
            <path fill="#8c84bc"
                d="M304.485 295.515a12 12 0 0 0-16.97 0L268 315.029V152a12 12 0 0 0-24 0v163.029l-19.515-19.514a12 12 0 0 0-16.97 16.97l40 40a12 12 0 0 0 16.97 0l40-40a12 12 0 0 0 0-16.97z"
                opacity="1" data-original="#8c84bc" />
        </g>
    </g>
</svg>